<?xml version="1.0" encoding="UTF-8" standalone="no"?>
<!DOCTYPE svg PUBLIC "-//W3C//DTD SVG 1.1//EN" "http://www.w3.org/Graphics/SVG/1.1/DTD/svg11.dtd">
<!--Generated by Intaglio, www.PurgatoryDesign.com-->
<svg version="1.1" viewBox="85,208,637,53" width="637" height="53" xmlns="http://www.w3.org/2000/svg" xmlns:xlink="http://www.w3.org/1999/xlink"><g><g><path fill="#002b66" d="M85,246.023 L130.98,246.023 L130.98,239.402 L85,239.402 Z"/><path fill="#002b66" d="M85,229.645 L94.1953,229.645 L94.1953,223.027 L85,223.027 Z"/><path fill="#002b66" d="M103.395,229.645 L112.59,229.645 L112.59,223.027 L103.395,223.027 Z"/><path fill="#002b66" d="M121.785,229.645 L130.98,229.645 L130.98,223.027 L121.785,223.027 Z"/><path fill="#002b66" d="M107.199,237.832 L85.0039,237.832 L85.0039,231.219 L107.199,231.219 Z"/><path fill="#002b66" d="M130.98,237.832 L108.781,237.832 L108.781,231.219 L130.98,231.219 Z"/><path fill="#002b66" d="M165.762,245.246 C168.801,245.145,169.473,244.57,169.473,243.32 L169.473,225.836 C169.473,224.59,168.801,223.98,165.762,223.879 L165.762,223.137 L176.395,223.137 L176.395,223.879 C173.355,223.98,172.68,224.59,172.68,225.836 L172.68,243.32 C172.68,244.57,173.355,245.145,176.395,245.246 L176.395,246.023 L165.762,246.023 Z"/><path fill="#002b66" d="M183.547,245.246 C186.551,245.145,187.465,244.57,187.465,243.32 L187.465,224.082 L185.773,224.082 C182.941,224.082,181.488,224.098,179.836,228.25 L179.09,228.184 L179.293,223.137 L198.805,223.137 L199.043,228.184 L198.297,228.25 C196.781,224.367,195.293,224.082,192.359,224.082 L190.637,224.082 L190.637,243.32 C190.637,244.57,191.547,245.145,194.551,245.246 L194.551,246.023 L183.547,246.023 Z"/><path fill="#002b66" d="M244.145,245.246 C247.082,245.145,247.824,244.57,247.824,243.32 L247.824,225.836 C247.824,224.59,247.082,223.98,244.145,223.879 L244.145,223.137 L262.711,223.137 L262.812,228.176 L262.07,228.211 C260.652,224.125,259.504,224.117,255.656,224.117 L251.031,224.117 L251.031,233.668 L253.09,233.668 C255.758,233.668,256.938,233.062,257.816,229.449 L258.492,229.449 L258.492,238.832 L257.816,238.832 C256.938,235.223,255.758,234.648,253.09,234.648 L251.031,234.648 L251.031,244.859 L255.656,244.859 C260.18,244.859,261.699,244.98,263.184,240.66 L263.926,240.695 L263.758,246.023 L244.145,246.023 Z"/><path fill="#002b66" d="M267.367,245.246 C270.305,245.145,271.047,244.57,271.047,243.32 L271.047,225.836 C271.047,224.59,270.305,223.98,267.367,223.879 L267.367,223.137 L277.766,223.137 L277.766,223.879 C274.762,223.98,274.254,224.555,274.254,225.836 L274.254,244.859 L277.629,244.859 C282.086,244.859,283.672,243.523,285.293,238.598 L286.035,238.629 L285.766,246.023 L267.367,246.023 Z"/><path fill="#002b66" d="M229.824,244.895 L227.328,244.895 L227.328,224.082 L229.793,224.082 C235.934,224.082,238.973,226.75,238.973,234.379 C238.973,241.871,237.016,244.895,229.824,244.895 M230.164,223.137 L221.004,223.137 L221.004,223.914 C223.453,224.074,224.121,224.676,224.121,225.836 L224.121,243.32 C224.121,244.484,223.453,245.055,221.004,245.211 L221.004,246.023 L230.469,246.023 C238.973,246.023,242.652,240.316,242.652,234.176 C242.652,227.762,238.434,223.137,230.164,223.137"/><path fill="#002b66" d="M204.105,236.367 L207.816,226.816 L207.953,226.816 L211.262,236.367 Z M216.762,242.176 L209.605,222.598 L208.457,222.598 L201.438,240.184 C200.09,243.523,199.145,244.773,196.883,245.312 L196.883,246.023 L204.477,246.023 L204.477,245.312 C201.473,244.809,201.133,244.066,202.551,240.387 L203.734,237.312 L211.598,237.312 L213.422,242.578 C214.098,244.469,213.625,245.145,210.551,245.312 L210.551,246.023 L220.062,246.023 L220.062,245.211 C218.027,244.836,217.473,244.082,216.762,242.176"/><path fill="#002b66" d="M155.23,223.508 C151.246,223.508,147.535,227.02,147.535,234.715 C147.535,242.039,151.988,245.078,155.871,245.078 C157.031,245.078,158.242,244.746,159.25,244.191 C160.301,243.617,161.254,242.828,161.93,241.84 C162.406,241.145,162.746,240.438,163.055,239.586 L163.801,239.812 C163.422,241.035,162.895,242.227,162.121,243.25 C161.379,244.234,160.418,245.055,159.324,245.621 C159.012,245.777,158.688,245.922,158.359,246.039 C157.992,246.172,157.617,246.277,157.234,246.359 C156.496,246.516,155.715,246.598,154.957,246.598 C148.445,246.598,143.855,241.902,143.855,234.852 C143.855,227.863,149.02,222.598,155.602,222.598 C157.996,222.598,159.922,223.238,161.34,224.016 L162.52,224 L162.766,226.211 L163.23,230.055 L162.52,230.055 C160.969,225.871,158.637,223.508,155.23,223.508"/><path fill="#002b66" d="M587.16,239.391 L588.195,239.391 C589.938,243.277,592.148,245.219,594.93,245.219 C598.277,245.219,599.652,242.941,599.652,240.965 C599.652,238.484,597.879,237.582,593.824,236.141 C590.777,235.07,587.562,234.164,587.562,230.047 C587.562,225.859,590.844,223.312,594.996,223.312 C596.871,223.312,598.211,223.684,599.281,224.082 L600.355,223.145 L601.094,223.145 L601.094,229.578 L600.055,229.578 C598.98,226.461,597.074,224.52,594.461,224.52 C592.184,224.52,590.406,225.992,590.406,228.605 C590.406,231.016,592.352,231.785,595.934,232.992 C598.98,234.031,602.129,235.07,602.129,239.223 C602.129,242.539,600.188,246.422,594.629,246.422 C592.82,246.422,590.91,246.023,589.637,245.484 L587.965,246.559 L587.16,246.559 Z"/><path fill="#002b66" d="M607.156,236.746 L614.355,236.574 C614.691,233.73,613.453,231.285,611.043,231.285 C609,231.285,607.426,232.859,607.156,236.746 M604.109,238.352 C604.109,233.766,606.922,230.246,611.277,230.246 C615.664,230.246,617.676,234.062,617.406,237.75 L607.125,237.75 L607.125,238.016 C607.125,241.699,608.965,244.383,612.25,244.383 C614.125,244.383,615.633,243.176,616.969,241.531 L617.641,242.172 C616.398,244.246,614.66,246.156,611.277,246.156 C606.59,246.156,604.109,242.773,604.109,238.352"/><path fill="#002b66" d="M619.449,238.352 C619.449,233.695,622.668,230.246,626.852,230.246 C630.371,230.246,632.18,232.191,632.18,233.863 C632.18,234.938,631.512,235.773,630.473,235.773 C629.332,235.773,628.695,235.07,628.695,234.066 C628.695,233.16,629.301,232.523,629.766,232.254 C629.266,231.789,628.227,231.285,626.922,231.285 C624.406,231.285,622.398,233.363,622.398,237.617 C622.398,241.602,624.406,244.246,627.625,244.246 C629.332,244.246,630.84,243.277,631.977,241.969 L632.648,242.605 C631.242,244.648,629.531,246.156,626.52,246.156 C622.133,246.156,619.449,242.805,619.449,238.352"/><path fill="#002b66" d="M636.199,241.5 L636.199,232.957 C636.199,231.922,635.668,231.688,633.723,231.617 L633.723,230.582 L639.016,230.414 L639.016,240.293 C639.016,243.273,640.188,244.078,642.398,244.078 C643.902,244.078,644.91,243.578,645.914,242.941 L645.914,232.957 C645.914,231.922,645.277,231.688,643.434,231.617 L643.434,230.582 L648.727,230.414 L648.727,243.676 C648.727,244.516,649.23,244.816,651.172,244.883 L651.172,245.887 L645.98,245.887 L645.98,243.945 C644.305,245.148,642.398,246.156,640.188,246.156 C637.773,246.156,636.199,244.516,636.199,241.5"/><path fill="#002b66" d="M652.648,244.848 C654.59,244.816,655.094,244.48,655.094,243.676 L655.094,233.262 C655.094,232.254,654.59,231.652,652.648,231.621 L652.648,230.582 L657.84,230.449 L657.84,233.062 C659.012,231.586,660.555,230.348,662.297,230.348 C664.004,230.348,664.773,231.52,664.773,232.66 C664.773,233.73,664.07,234.566,663.035,234.566 C662.027,234.566,661.191,233.965,661.191,232.824 C661.191,232.66,661.223,232.457,661.258,232.254 C659.75,232.191,658.578,233.227,657.91,234.199 L657.91,243.676 C657.91,244.48,658.512,244.816,660.719,244.848 L660.719,245.887 L652.648,245.887 Z"/><path fill="#002b66" d="M667.992,224.688 C667.992,223.516,668.762,222.645,669.898,222.645 C671.043,222.645,671.809,223.449,671.809,224.621 C671.809,225.793,671.043,226.629,669.898,226.629 C668.762,226.629,667.992,225.859,667.992,224.688 M666.117,244.848 C668.059,244.816,668.562,244.48,668.562,243.676 L668.562,233.262 C668.562,232.254,668.094,231.652,666.148,231.621 L666.148,230.582 L671.375,230.449 L671.375,243.676 C671.375,244.48,671.844,244.816,673.82,244.848 L673.82,245.887 L666.117,245.887 Z"/><path fill="#002b66" d="M676.836,241.969 L676.836,232.055 L673.988,232.055 L673.988,231.117 L676.902,230.516 L676.902,226.227 L679.648,225.023 L679.648,230.582 L684.508,230.582 L684.508,231.988 L679.648,231.988 L679.648,241.602 C679.648,243.441,680.316,244.312,681.727,244.312 C682.664,244.312,683.398,243.609,684.172,242.504 L684.941,243.039 C683.699,245.285,682.562,246.156,680.422,246.156 C678.176,246.156,676.836,244.781,676.836,241.969"/><path fill="#002b66" d="M688.258,224.688 C688.258,223.516,689.027,222.645,690.168,222.645 C691.309,222.645,692.074,223.449,692.074,224.621 C692.074,225.793,691.309,226.629,690.168,226.629 C689.027,226.629,688.258,225.859,688.258,224.688 M686.383,244.848 C688.324,244.816,688.828,244.48,688.828,243.676 L688.828,233.262 C688.828,232.254,688.359,231.652,686.414,231.621 L686.414,230.582 L691.641,230.449 L691.641,243.676 C691.641,244.48,692.113,244.816,694.086,244.848 L694.086,245.887 L686.383,245.887 Z"/><path fill="#002b66" d="M697.809,236.746 L705.008,236.574 C705.34,233.73,704.105,231.285,701.691,231.285 C699.648,231.285,698.074,232.859,697.809,236.746 M694.758,238.352 C694.758,233.766,697.574,230.246,701.926,230.246 C706.316,230.246,708.324,234.062,708.055,237.75 L697.773,237.75 L697.773,238.016 C697.773,241.699,699.617,244.383,702.898,244.383 C704.773,244.383,706.281,243.176,707.621,241.531 L708.289,242.172 C707.051,244.246,705.309,246.156,701.926,246.156 C697.238,246.156,694.758,242.773,694.758,238.352"/><path fill="#002b66" d="M710.602,241.031 L711.574,241.031 C713.082,243.512,714.656,245.117,716.598,245.117 C718.406,245.117,719.344,243.879,719.344,242.57 C719.344,241,718.406,240.359,715.359,239.426 C711.977,238.418,710.77,237.246,710.77,235.137 C710.77,232.223,712.848,230.246,716.164,230.246 C717.234,230.246,718.609,230.648,719.344,231.117 L719.949,230.246 L720.719,230.246 L720.719,234.801 L719.746,234.801 C718.676,232.723,717.402,231.285,715.762,231.285 C714.156,231.285,713.082,232.324,713.082,233.797 C713.082,235.172,714.219,235.875,716.902,236.645 C720.082,237.547,721.457,238.719,721.457,241 C721.457,243.812,719.68,246.156,716.262,246.156 C715.023,246.156,713.285,245.621,712.379,245.086 L711.375,246.156 L710.602,246.156 Z"/><path fill="#002b66" d="M570.402,248.879 L569.527,248.879 L569.527,220.117 L570.402,220.117 Z"/><path fill="#002b66" d="M350.055,246.02 L396.031,246.02 L396.031,239.402 L350.055,239.402 Z"/><path fill="#002b66" d="M350.055,229.645 L359.25,229.645 L359.25,223.027 L350.055,223.027 Z"/><path fill="#002b66" d="M368.445,229.645 L377.641,229.645 L377.641,223.027 L368.445,223.027 Z"/><path fill="#002b66" d="M386.836,229.645 L396.031,229.645 L396.031,223.027 L386.836,223.027 Z"/><path fill="#002b66" d="M372.254,237.828 L350.055,237.828 L350.055,231.219 L372.254,231.219 Z"/><path fill="#002b66" d="M396.035,237.828 L373.836,237.828 L373.836,231.219 L396.035,231.219 Z"/><path fill="#002b66" d="M430.812,245.246 C433.852,245.145,434.527,244.57,434.527,243.32 L434.527,225.836 C434.527,224.59,433.852,223.98,430.812,223.879 L430.812,223.137 L441.445,223.137 L441.445,223.879 C438.406,223.98,437.734,224.59,437.734,225.836 L437.734,243.32 C437.734,244.57,438.406,245.145,441.445,245.246 L441.445,246.02 L430.812,246.02 Z"/><path fill="#002b66" d="M448.602,245.246 C451.605,245.145,452.516,244.57,452.516,243.32 L452.516,224.082 L450.828,224.082 C447.992,224.082,446.543,224.098,444.887,228.25 L444.145,228.184 L444.348,223.137 L463.859,223.137 L464.094,228.184 L463.352,228.25 C461.832,224.367,460.348,224.082,457.41,224.082 L455.688,224.082 L455.688,243.32 C455.688,244.57,456.602,245.145,459.605,245.246 L459.605,246.02 L448.602,246.02 Z"/><path fill="#002b66" d="M509.199,245.246 C512.137,245.145,512.879,244.57,512.879,243.32 L512.879,225.836 C512.879,224.59,512.137,223.98,509.199,223.879 L509.199,223.137 L527.762,223.137 L527.863,228.176 L527.121,228.211 C525.703,224.125,524.555,224.113,520.707,224.113 L516.086,224.113 L516.086,233.668 L518.145,233.668 C520.809,233.668,521.992,233.059,522.867,229.445 L523.543,229.445 L523.543,238.832 L522.867,238.832 C521.992,235.223,520.809,234.645,518.145,234.645 L516.086,234.645 L516.086,244.855 L520.707,244.855 C525.23,244.855,526.75,244.977,528.234,240.656 L528.977,240.691 L528.809,246.02 L509.199,246.02 Z"/><path fill="#002b66" d="M532.422,245.246 C535.359,245.145,536.102,244.57,536.102,243.32 L536.102,225.836 C536.102,224.59,535.359,223.98,532.422,223.879 L532.422,223.137 L542.816,223.137 L542.816,223.879 C539.812,223.98,539.309,224.555,539.309,225.836 L539.309,244.855 L542.684,244.855 C547.141,244.855,548.727,243.523,550.348,238.598 L551.09,238.629 L550.82,246.02 L532.422,246.02 Z"/><path fill="#002b66" d="M494.879,244.891 L492.379,244.891 L492.379,224.082 L494.844,224.082 C500.988,224.082,504.023,226.746,504.023,234.375 C504.023,241.871,502.066,244.891,494.879,244.891 M495.215,223.137 L486.055,223.137 L486.055,223.914 C488.508,224.074,489.172,224.672,489.172,225.836 L489.172,243.32 C489.172,244.484,488.508,245.055,486.055,245.211 L486.055,246.023 L495.52,246.023 C504.023,246.023,507.707,240.316,507.707,234.172 C507.707,227.758,503.484,223.137,495.215,223.137"/><path fill="#002b66" d="M469.156,236.367 L472.871,226.812 L473.004,226.812 L476.312,236.367 Z M481.816,242.176 L474.66,222.598 L473.512,222.598 L466.492,240.18 C465.141,243.523,464.195,244.773,461.934,245.312 L461.934,246.02 L469.527,246.02 L469.527,245.312 C466.523,244.805,466.188,244.062,467.605,240.387 L468.785,237.312 L476.652,237.312 L478.473,242.578 C479.148,244.469,478.676,245.145,475.605,245.312 L475.605,246.02 L485.117,246.02 L485.117,245.211 C483.082,244.836,482.523,244.082,481.816,242.176"/><path fill="#002b66" d="M420.281,223.508 C416.301,223.508,412.586,227.02,412.586,234.711 C412.586,242.039,417.043,245.074,420.922,245.074 C422.082,245.074,423.293,244.742,424.305,244.191 C425.352,243.617,426.305,242.828,426.984,241.836 C427.461,241.145,427.801,240.438,428.105,239.586 L428.852,239.812 C428.473,241.035,427.945,242.227,427.172,243.25 C426.43,244.234,425.473,245.055,424.375,245.617 C424.062,245.777,423.742,245.918,423.414,246.039 C423.047,246.172,422.668,246.277,422.289,246.359 C421.551,246.516,420.766,246.598,420.012,246.598 C413.496,246.598,408.906,241.902,408.906,234.852 C408.906,227.863,414.07,222.598,420.652,222.598 C423.051,222.598,424.973,223.238,426.391,224.016 L427.574,224 L427.816,226.207 L428.281,230.055 L427.574,230.055 C426.02,225.867,423.691,223.508,420.281,223.508"/><path fill="#002b66" d="M318.875,260.5 L317.207,260.5 L317.207,208.5 L318.875,208.5 Z"/></g></g></svg>
